<svg xmlns="http://www.w3.org/2000/svg" xml:space="preserve" width="1500" height="179" viewBox="0 0 1500 179" data-version="1" data-id="lg_LEEq3yKgdXc9HDINOZ"><g id="outer-wrapper" data-padding="20" transform="matrix(1,0,0,1,0,0)"><g id="inner-wrapper" transform="matrix(0.9019607843137255,0,0,0.9019607843137255,10,8.774509803921575)"><rect width="204.239" height="178.54" x="495.6952826086956" y="-400.2" fill="none" rx="0" ry="0" transform="translate(222.62 400.43)"></rect><path fill="#ff4136" d="M764.0252826086956 138.64H731.6552826086956V39.889999999999986H764.0252826086956Q777.4052826086956 39.889999999999986 787.3352826086956 44.27999999999997Q797.2652826086957 48.65999999999997 803.7352826086956 55.90999999999997Q810.2152826086956 63.14999999999998 813.3952826086957 71.86999999999995T816.5752826086956 89.25999999999993T813.3952826086957 106.64999999999992Q810.2152826086956 115.37999999999994 803.7352826086956 122.61999999999995Q797.2652826086957 129.85999999999996 787.3352826086956 134.24999999999994T764.0252826086956 138.63999999999993M744.1652826086956 51.07999999999993V127.43999999999994H762.7052826086956Q774.1152826086957 127.43999999999994 781.9052826086956 123.87999999999994Q789.6952826086956 120.30999999999995 794.5252826086956 114.54999999999995T801.4952826086956 102.09999999999997Q803.6252826086957 95.40999999999997 803.6252826086957 89.25999999999999Q803.6252826086957 83.12 801.4952826086956 76.42000000000002Q799.3552826086957 69.73000000000002 794.5252826086956 63.97000000000003T781.9052826086956 54.64000000000004Q774.1152826086957 51.08000000000004 762.7052826086956 51.08000000000004ZM881.3152826086956 140.60999999999996Q870.6752826086956 140.60999999999996 861.2852826086956 136.60999999999996Q851.9052826086956 132.59999999999997 844.8352826086957 125.57999999999998Q837.7552826086957 118.56 833.7452826086957 109.22999999999996Q829.7452826086957 99.89999999999998 829.7452826086957 89.25999999999993T833.7452826086957 69.2899999999999Q837.7552826086957 59.969999999999914 844.8352826086957 52.939999999999884Q851.9052826086956 45.9199999999999 861.2852826086956 41.9199999999999Q870.6752826086956 37.90999999999991 881.3152826086956 37.90999999999991Q891.8452826086956 37.90999999999991 901.0652826086956 41.80999999999989Q910.2752826086955 45.699999999999875 917.3052826086956 52.499999999999886L913.6852826086956 67.64999999999986Q908.6352826086957 59.52999999999986 900.1352826086957 54.63999999999987Q891.6252826086957 49.75999999999988 881.3152826086956 49.75999999999988Q870.4552826086956 49.75999999999988 861.7252826086956 55.07999999999987Q853.0052826086957 60.399999999999864 847.8452826086957 69.34999999999985Q842.6952826086956 78.28999999999985 842.6952826086956 89.25999999999988Q842.6952826086956 100.11999999999989 847.8452826086957 109.11999999999989Q853.0052826086957 118.11999999999989 861.7252826086956 123.43999999999988Q870.4552826086956 128.75999999999988 881.3152826086956 128.75999999999988Q891.7352826086956 128.75999999999988 900.1852826086956 123.81999999999988Q908.6352826086957 118.88999999999987 913.6852826086956 110.87999999999988L917.3052826086956 126.01999999999987Q910.2752826086956 132.70999999999987 901.0652826086956 136.65999999999985Q891.8452826086956 140.60999999999984 881.3152826086956 140.60999999999984 " paint-order="stroke"></path></g><rect width="204" height="179" x="648" y="0" id="space-saver" fill="transparent" stroke="transparent"></rect></g></svg>